{
  "accessors": [
    {
      "bufferView": 2,
      "componentType": 5126,
      "count": 76,
      "max": [
        0.5000000596046448,
        0.32205647230148315,
        0.5
      ],
      "min": [
        -0.5,
        -0.5,
        -0.5
      ],
      "type": "VEC3"
    },
    {
      "bufferView": 2,
      "byteOffset": 912,
      "componentType": 5126,
      "count": 76,
      "max": [
        1.0,
        0.9218457341194153,
        1.0
      ],
      "min": [
        -1.0,
        -1.0,
        -1.0
      ],
      "type": "VEC3"
    },
    {
      "bufferView": 3,
      "componentType": 5126,
      "count": 76,
      "max": [
        1.0,
        1.0,
        0.8644183874130249,
        1.0
      ],
      "min": [
        -0.5833409428596497,
        -1.0,
        -0.986051082611084,
        -1.0
      ],
      "type": "VEC4"
    },
    {
      "bufferView": 1,
      "componentType": 5126,
      "count": 76,
      "max": [
        0.6471404433250427,
        0.9980080127716064
      ],
      "min": [
        0.0017866294365376234,
        0.0019920319318771362
      ],
      "type": "VEC2"
    },
    {
      "bufferView": 1,
      "byteOffset": 608,
      "componentType": 5126,
      "count": 76,
      "max": [
        0.6471404433250427,
        0.9980080127716064
      ],
      "min": [
        0.0017866294365376234,
        0.0019920319318771362
      ],
      "type": "VEC2"
    },
    {
      "bufferView": 0,
      "componentType": 5125,
      "count": 132,
      "type": "SCALAR"
    },
    {
      "bufferView": 2,
      "byteOffset": 1824,
      "componentType": 5126,
      "count": 76,
      "max": [
        0.5000000596046448,
        0.32205647230148315,
        0.5
      ],
      "min": [
        -0.5,
        -0.5,
        -0.5
      ],
      "type": "VEC3"
    },
    {
      "bufferView": 2,
      "byteOffset": 2736,
      "componentType": 5126,
      "count": 76,
      "max": [
        1.0,
        0.9218457341194153,
        1.0
      ],
      "min": [
        -1.0,
        -1.0,
        -1.0
      ],
      "type": "VEC3"
    },
    {
      "bufferView": 3,
      "byteOffset": 1216,
      "componentType": 5126,
      "count": 76,
      "max": [
        1.0,
        1.0,
        0.8644183874130249,
        1.0
      ],
      "min": [
        -0.5833409428596497,
        -1.0,
        -0.986051082611084,
        -1.0
      ],
      "type": "VEC4"
    },
    {
      "bufferView": 1,
      "byteOffset": 1216,
      "componentType": 5126,
      "count": 76,
      "max": [
        0.6471404433250427,
        0.9980080127716064
      ],
      "min": [
        0.0017866294365376234,
        0.0019920319318771362
      ],
      "type": "VEC2"
    },
    {
      "bufferView": 1,
      "byteOffset": 1824,
      "componentType": 5126,
      "count": 76,
      "max": [
        0.6471404433250427,
        0.9980080127716064
      ],
      "min": [
        0.0017866294365376234,
        0.0019920319318771362
      ],
      "type": "VEC2"
    },
    {
      "bufferView": 0,
      "byteOffset": 528,
      "componentType": 5125,
      "count": 132,
      "type": "SCALAR"
    },
    {
      "bufferView": 2,
      "byteOffset": 3648,
      "componentType": 5126,
      "count": 144,
      "max": [
        0.5,
        0.5,
        0.5
      ],
      "min": [
        -0.5,
        -0.5,
        -0.5
      ],
      "type": "VEC3"
    },
    {
      "bufferView": 2,
      "byteOffset": 5376,
      "componentType": 5126,
      "count": 144,
      "max": [
        1.0,
        1.0,
        1.0
      ],
      "min": [
        -1.0,
        -0.9992157816886902,
        -1.0
      ],
      "type": "VEC3"
    },
    {
      "bufferView": 3,
      "byteOffset": 2432,
      "componentType": 5126,
      "count": 144,
      "max": [
        1.0,
        0.9995693564414978,
        1.0,
        1.0
      ],
      "min": [
        -0.999898374080658,
        -0.9985339045524597,
        -1.0,
        -1.0
      ],
      "type": "VEC4"
    },
    {
      "bufferView": 1,
      "byteOffset": 2432,
      "componentType": 5126,
      "count": 144,
      "max": [
        0.992111325263977,
        0.5472838878631592
      ],
      "min": [
        0.0,
        0.0
      ],
      "type": "VEC2"
    },
    {
      "bufferView": 1,
      "byteOffset": 3584,
      "componentType": 5126,
      "count": 144,
      "max": [
        0.992111325263977,
        0.5472838878631592
      ],
      "min": [
        0.0,
        0.0
      ],
      "type": "VEC2"
    },
    {
      "bufferView": 0,
      "byteOffset": 1056,
      "componentType": 5125,
      "count": 228,
      "type": "SCALAR"
    },
    {
      "bufferView": 2,
      "byteOffset": 7104,
      "componentType": 5126,
      "count": 421,
      "max": [
        1.1780977249145508,
        1.5410690307617188,
        1.1780980825424194
      ],
      "min": [
        -1.178098201751709,
        -1.0,
        -1.1780989170074463
      ],
      "type": "VEC3"
    },
    {
      "bufferView": 2,
      "byteOffset": 12156,
      "componentType": 5126,
      "count": 421,
      "max": [
        0.9998118281364441,
        1.0,
        0.9998119473457336
      ],
      "min": [
        -0.9998118281364441,
        -1.0,
        -0.9998119473457336
      ],
      "type": "VEC3"
    },
    {
      "bufferView": 3,
      "byteOffset": 4736,
      "componentType": 5126,
      "count": 421,
      "max": [
        1.0,
        0.9992919564247131,
        0.9998118281364441,
        1.0
      ],
      "min": [
        -0.8202664852142334,
        -0.9992918968200684,
        -1.0,
        -1.0
      ],
      "type": "VEC4"
    },
    {
      "bufferView": 1,
      "byteOffset": 4736,
      "componentType": 5126,
      "count": 421,
      "max": [
        0.9657710790634155,
        0.9854913949966431
      ],
      "min": [
        0.21341164410114288,
        0.37808528542518616
      ],
      "type": "VEC2"
    },
    {
      "bufferView": 1,
      "byteOffset": 8104,
      "componentType": 5126,
      "count": 421,
      "max": [
        0.9657710790634155,
        0.9854913949966431
      ],
      "min": [
        0.21341164410114288,
        0.37808528542518616
      ],
      "type": "VEC2"
    },
    {
      "bufferView": 0,
      "byteOffset": 1968,
      "componentType": 5125,
      "count": 660,
      "type": "SCALAR"
    },
    {
      "bufferView": 4,
      "componentType": 5126,
      "count": 123,
      "max": [
        7.333333492279053
      ],
      "min": [
        0.0416666679084301
      ],
      "type": "SCALAR"
    },
    {
      "bufferView": 5,
      "componentType": 5126,
      "count": 123,
      "max": [
        -0.5,
        1.2000000476837158,
        0.0
      ],
      "min": [
        -1.100000023841858,
        0.699999988079071,
        0.0
      ],
      "type": "VEC3"
    },
    {
      "bufferView": 4,
      "byteOffset": 492,
      "componentType": 5126,
      "count": 72,
      "max": [
        7.333333492279053
      ],
      "min": [
        0.0416666679084301
      ],
      "type": "SCALAR"
    },
    {
      "bufferView": 6,
      "componentType": 5126,
      "count": 72,
      "max": [
        0.0,
        0.0,
        0.10452846437692642,
        1.0
      ],
      "min": [
        0.0,
        0.0,
        0.0,
        0.9945219159126282
      ],
      "type": "VEC4"
    },
    {
      "bufferView": 4,
      "byteOffset": 780,
      "componentType": 5126,
      "count": 123,
      "max": [
        7.333333492279053
      ],
      "min": [
        0.0416666679084301
      ],
      "type": "SCALAR"
    },
    {
      "bufferView": 5,
      "byteOffset": 1476,
      "componentType": 5126,
      "count": 123,
      "max": [
        1.100000023841858,
        1.2000000476837158,
        0.0
      ],
      "min": [
        0.5,
        0.699999988079071,
        0.0
      ],
      "type": "VEC3"
    },
    {
      "bufferView": 4,
      "byteOffset": 1272,
      "componentType": 5126,
      "count": 72,
      "max": [
        7.333333492279053
      ],
      "min": [
        0.0416666679084301
      ],
      "type": "SCALAR"
    },
    {
      "bufferView": 6,
      "byteOffset": 1152,
      "componentType": 5126,
      "count": 72,
      "max": [
        1.0,
        3.7493993930529855e-33,
        6.72974227863993e-17,
        6.64658614253222e-17
      ],
      "min": [
        0.9945219159126282,
        -0.10452846437692642,
        5.5507551341231996e-17,
        -6.123234262925839e-17
      ],
      "type": "VEC4"
    },
    {
      "bufferView": 4,
      "byteOffset": 1560,
      "componentType": 5126,
      "count": 122,
      "max": [
        7.333333492279053
      ],
      "min": [
        0.0
      ],
      "type": "SCALAR"
    },
    {
      "bufferView": 5,
      "byteOffset": 2952,
      "componentType": 5126,
      "count": 122,
      "max": [
        0.0,
        0.8100000023841858,
        0.7865091562271118
      ],
      "min": [
        0.0,
        0.30977651476860046,
        0.4685286581516266
      ],
      "type": "VEC3"
    },
    {
      "bufferView": 4,
      "byteOffset": 2048,
      "componentType": 5126,
      "count": 102,
      "max": [
        7.333333492279053
      ],
      "min": [
        0.0
      ],
      "type": "SCALAR"
    },
    {
      "bufferView": 6,
      "byteOffset": 2304,
      "componentType": 5126,
      "count": 102,
      "max": [
        0.7352707982063293,
        0.6650776863098145,
        0.7258049249649048,
        0.6737515926361084
      ],
      "min": [
        0.12955710291862488,
        0.049809109419584274,
        0.05435710400342941,
        0.11871721595525742
      ],
      "type": "VEC4"
    }
  ],
  "animations": [
    {
      "channels": [
        {
          "sampler": 0,
          "target": {
            "node": 4,
            "path": "translation"
          }
        },
        {
          "sampler": 1,
          "target": {
            "node": 4,
            "path": "rotation"
          }
        },
        {
          "sampler": 2,
          "target": {
            "node": 6,
            "path": "translation"
          }
        },
        {
          "sampler": 3,
          "target": {
            "node": 6,
            "path": "rotation"
          }
        },
        {
          "sampler": 4,
          "target": {
            "node": 10,
            "path": "translation"
          }
        },
        {
          "sampler": 5,
          "target": {
            "node": 10,
            "path": "rotation"
          }
        }
      ],
      "name": "Opening Animation",
      "samplers": [
        {
          "input": 24,
          "interpolation": "LINEAR",
          "output": 25
        },
        {
          "input": 26,
          "interpolation": "LINEAR",
          "output": 27
        },
        {
          "input": 28,
          "interpolation": "LINEAR",
          "output": 29
        },
        {
          "input": 30,
          "interpolation": "LINEAR",
          "output": 31
        },
        {
          "input": 32,
          "interpolation": "LINEAR",
          "output": 33
        },
        {
          "input": 34,
          "interpolation": "LINEAR",
          "output": 35
        }
      ]
    }
  ],
  "asset": {
    "extras": {
      "author": "maxtull04 (https://sketchfab.com/maxtull04)",
      "license": "CC-BY-4.0 (http://creativecommons.org/licenses/by/4.0/)",
      "source": "https://sketchfab.com/3d-models/sci-fi-futuristic-container-67ff497a18a141ccb9328e3b47fca1e8",
      "title": "Sci-Fi Futuristic Container"
    },
    "generator": "Sketchfab-14.13.0",
    "version": "2.0"
  },
  "bufferViews": [
    {
      "buffer": 0,
      "byteLength": 4608,
      "name": "floatBufferViews",
      "target": 34963
    },
    {
      "buffer": 0,
      "byteLength": 11472,
      "byteOffset": 4608,
      "byteStride": 8,
      "name": "floatBufferViews",
      "target": 34962
    },
    {
      "buffer": 0,
      "byteLength": 17208,
      "byteOffset": 16080,
      "byteStride": 12,
      "name": "floatBufferViews",
      "target": 34962
    },
    {
      "buffer": 0,
      "byteLength": 11472,
      "byteOffset": 33288,
      "byteStride": 16,
      "name": "floatBufferViews",
      "target": 34962
    },
    {
      "buffer": 0,
      "byteLength": 2456,
      "byteOffset": 44760,
      "name": "floatBufferViews"
    },
    {
      "buffer": 0,
      "byteLength": 4416,
      "byteOffset": 47216,
      "byteStride": 12,
      "name": "floatBufferViews"
    },
    {
      "buffer": 0,
      "byteLength": 3936,
      "byteOffset": 51632,
      "byteStride": 16,
      "name": "floatBufferViews"
    }
  ],
  "buffers": [
    {
      "byteLength": 55568,
      "uri": "scene.bin"
    }
  ],
  "images": [
    {
      "uri": "textures/blinn4_baseColor.jpeg"
    },
    {
      "uri": "textures/blinn4_normal.png"
    }
  ],
  "materials": [
    {
      "doubleSided": true,
      "emissiveFactor": [
        1.0,
        1.0,
        1.0
      ],
      "emissiveTexture": {
        "index": 0
      },
      "name": "blinn4",
      "normalTexture": {
        "index": 1
      },
      "pbrMetallicRoughness": {
        "baseColorTexture": {
          "index": 0
        },
        "metallicFactor": 0.0,
        "roughnessFactor": 0.0
      }
    }
  ],
  "meshes": [
    {
      "name": "lid_left_blinn4_0",
      "primitives": [
        {
          "attributes": {
            "NORMAL": 1,
            "POSITION": 0,
            "TANGENT": 2,
            "TEXCOORD_0": 3,
            "TEXCOORD_1": 4
          },
          "indices": 5,
          "material": 0,
          "mode": 4
        }
      ]
    },
    {
      "name": "lid_right_blinn4_0",
      "primitives": [
        {
          "attributes": {
            "NORMAL": 7,
            "POSITION": 6,
            "TANGENT": 8,
            "TEXCOORD_0": 9,
            "TEXCOORD_1": 10
          },
          "indices": 11,
          "material": 0,
          "mode": 4
        }
      ]
    },
    {
      "name": "body_blinn4_0",
      "primitives": [
        {
          "attributes": {
            "NORMAL": 13,
            "POSITION": 12,
            "TANGENT": 14,
            "TEXCOORD_0": 15,
            "TEXCOORD_1": 16
          },
          "indices": 17,
          "material": 0,
          "mode": 4
        }
      ]
    },
    {
      "name": "lock_blinn4_0",
      "primitives": [
        {
          "attributes": {
            "NORMAL": 19,
            "POSITION": 18,
            "TANGENT": 20,
            "TEXCOORD_0": 21,
            "TEXCOORD_1": 22
          },
          "indices": 23,
          "material": 0,
          "mode": 4
        }
      ]
    }
  ],
  "nodes": [
    {
      "children": [
        1
      ],
      "matrix": [
        1.0,
        0.0,
        0.0,
        0.0,
        0.0,
        2.220446049250313e-16,
        -1.0,
        0.0,
        0.0,
        1.0,
        2.220446049250313e-16,
        0.0,
        0.0,
        0.0,
        0.0,
        1.0
      ],
      "name": "Sketchfab_model"
    },
    {
      "children": [
        2
      ],
      "matrix": [
        1.0,
        0.0,
        0.0,
        0.0,
        0.0,
        0.0,
        1.0,
        0.0,
        0.0,
        -1.0,
        0.0,
        0.0,
        0.0,
        0.0,
        0.0,
        1.0
      ],
      "name": "mesh.fbx"
    },
    {
      "children": [
        3
      ],
      "name": "Object_2"
    },
    {
      "children": [
        4,
        6,
        8,
        10
      ],
      "name": "RootNode"
    },
    {
      "children": [
        5
      ],
      "name": "lid_left",
      "scale": [
        1.0,
        0.20000000298023224,
        1.0
      ],
      "translation": [
        -0.5,
        0.699999988079071,
        0.0
      ]
    },
    {
      "mesh": 0,
      "name": "lid_left_blinn4_0"
    },
    {
      "children": [
        7
      ],
      "name": "lid_right",
      "rotation": [
        1.0,
        3.7493993930529855e-33,
        6.123234262925839e-17,
        -6.123234262925839e-17
      ],
      "scale": [
        -1.0,
        -0.20000000298023224,
        -1.0
      ],
      "translation": [
        0.5,
        0.699999988079071,
        0.0
      ]
    },
    {
      "mesh": 1,
      "name": "lid_right_blinn4_0"
    },
    {
      "children": [
        9
      ],
      "name": "body",
      "scale": [
        2.0,
        0.6000000238418579,
        1.0
      ],
      "translation": [
        0.0,
        0.30000001192092896,
        0.0
      ]
    },
    {
      "mesh": 2,
      "name": "body_blinn4_0"
    },
    {
      "children": [
        11
      ],
      "name": "lock",
      "rotation": [
        0.12955708801746368,
        0.6650776863098145,
        0.7258049845695496,
        0.11871719360351563
      ],
      "scale": [
        0.12330318987369537,
        0.02812960371375084,
        0.12330318987369537
      ],
      "translation": [
        0.0,
        0.30977651476860046,
        0.4685286581516266
      ]
    },
    {
      "mesh": 3,
      "name": "lock_blinn4_0"
    }
  ],
  "samplers": [
    {
      "magFilter": 9729,
      "minFilter": 9987,
      "wrapS": 10497,
      "wrapT": 10497
    }
  ],
  "scene": 0,
  "scenes": [
    {
      "name": "Sketchfab_Scene",
      "nodes": [
        0
      ]
    }
  ],
  "textures": [
    {
      "sampler": 0,
      "source": 0
    },
    {
      "sampler": 0,
      "source": 1
    }
  ]
}
